<?xml version="1.0"?>
<svg xmlns="http://www.w3.org/2000/svg" xmlns:xlink="http://www.w3.org/1999/xlink" id="Camada_1" data-name="Camada 1" viewBox="0 0 100 100">
  <defs>
    <style>.cls-1{fill:none;}.cls-2{clip-path:url(#clip-path);}.cls-3{fill:#fff;}</style>
    <clipPath id="clip-path">
      <rect class="cls-1" x="5" y="5" width="90" height="90"/>
    </clipPath>
  </defs>
  <g class="cls-2">
    <path class="cls-3" d="M50,26.89A23.1,23.1,0,1,0,73.11,50,23.1,23.1,0,0,0,50,26.89ZM50,65A15,15,0,1,1,65,50,15,15,0,0,1,50,65Z"/>
    <path class="cls-3" d="M68.55,5.29c-8.28-.38-28.79-.36-37.07,0-7.29.34-13.71,2.1-18.89,7.28C3.94,21.23,5,32.89,5,50c0,17.51-1,28.9,7.55,37.42C21.28,96.1,33.11,95,50,95c17.34,0,23.33,0,29.46-2.36C87.8,89.36,94.1,81.91,94.71,68.53c.39-8.28.37-28.79,0-37.08C94,15.65,85.49,6.07,68.55,5.29Zm13.11,76.4C76,87.36,68.11,86.86,49.9,86.86c-18.75,0-26.27.27-31.75-5.23C11.83,75.34,13,65.24,13,49.93c0-20.72-2.12-35.64,18.67-36.7,4.78-.17,6.18-.23,18.21-.23l.17.12c20,0,35.66-2.1,36.6,18.69.22,4.75.27,6.17.27,18.18C86.88,68.52,87.23,76.09,81.66,81.69Z"/>
    <path class="cls-3" d="M74,31.38a5.4,5.4,0,1,0-5.4-5.4A5.4,5.4,0,0,0,74,31.38Z"/>
  </g>
</svg>
